<svg version="1.1" height="8.5in" width="11in"><svg version="1.1" width="3.5in" height="2in" viewBox="0 0 175 100" x="0.25in" y="0.25in"><text text-anchor="middle" font-family="Dancing Script" font-size="18" x="50%" y="50%" fill="black">Table #10 &#8594; #9</text><rect x="0" y="75" width="25" height="25" fill="#F19A3E" /><text text-anchor="middle" font-family="Courier Prime" x="12.5" y="91" fill="white">C</text><rect x="25" y="75" width="25" height="25" fill="#A63D40" /><text text-anchor="middle" font-family="Courier Prime" x="37.5" y="91" fill="white">T</text><rect x="50" y="75" width="25" height="25" fill="#F19A3E" /><text text-anchor="middle" font-family="Courier Prime" x="62.5" y="91" fill="white">C</text><rect x="75" y="75" width="25" height="25" fill="#A63D40" /><text text-anchor="middle" font-family="Courier Prime" x="87.5" y="91" fill="white">T</text><rect x="100" y="75" width="25" height="25" fill="#7FB800" /><text text-anchor="middle" font-family="Courier Prime" x="112.5" y="91" fill="white">A</text><rect x="125" y="75" width="25" height="25" fill="#7FB800" /><text text-anchor="middle" font-family="Courier Prime" x="137.5" y="91" fill="white">A</text><rect x="150" y="75" width="25" height="25" fill="#F19A3E" /><text text-anchor="middle" font-family="Courier Prime" x="162.5" y="91" fill="white">C</text></svg><svg version="1.1" width="3.5in" height="2in" viewBox="0 0 175 100" x="3.75in" y="0.25in"><text text-anchor="middle" font-family="Dancing Script" font-size="18" x="50%" y="50%" fill="black">Table #10 &#8594; #5</text><rect x="0" y="75" width="25" height="25" fill="#008FCC" /><text text-anchor="middle" font-family="Courier Prime" x="12.5" y="91" fill="white">G</text><rect x="25" y="75" width="25" height="25" fill="#7FB800" /><text text-anchor="middle" font-family="Courier Prime" x="37.5" y="91" fill="white">A</text><rect x="50" y="75" width="25" height="25" fill="#7FB800" /><text text-anchor="middle" font-family="Courier Prime" x="62.5" y="91" fill="white">A</text><rect x="75" y="75" width="25" height="25" fill="#F19A3E" /><text text-anchor="middle" font-family="Courier Prime" x="87.5" y="91" fill="white">C</text><rect x="100" y="75" width="25" height="25" fill="#F19A3E" /><text text-anchor="middle" font-family="Courier Prime" x="112.5" y="91" fill="white">C</text><rect x="125" y="75" width="25" height="25" fill="#F19A3E" /><text text-anchor="middle" font-family="Courier Prime" x="137.5" y="91" fill="white">C</text><rect x="150" y="75" width="25" height="25" fill="#7FB800" /><text text-anchor="middle" font-family="Courier Prime" x="162.5" y="91" fill="white">A</text></svg><svg version="1.1" width="3.5in" height="2in" viewBox="0 0 175 100" x="7.25in" y="0.25in"><text text-anchor="middle" font-family="Dancing Script" font-size="18" x="50%" y="50%" fill="black">Table #10 &#8594; #1</text><rect x="0" y="75" width="25" height="25" fill="#F19A3E" /><text text-anchor="middle" font-family="Courier Prime" x="12.5" y="91" fill="white">C</text><rect x="25" y="75" width="25" height="25" fill="#F19A3E" /><text text-anchor="middle" font-family="Courier Prime" x="37.5" y="91" fill="white">C</text><rect x="50" y="75" width="25" height="25" fill="#A63D40" /><text text-anchor="middle" font-family="Courier Prime" x="62.5" y="91" fill="white">T</text><rect x="75" y="75" width="25" height="25" fill="#008FCC" /><text text-anchor="middle" font-family="Courier Prime" x="87.5" y="91" fill="white">G</text><rect x="100" y="75" width="25" height="25" fill="#F19A3E" /><text text-anchor="middle" font-family="Courier Prime" x="112.5" y="91" fill="white">C</text><rect x="125" y="75" width="25" height="25" fill="#F19A3E" /><text text-anchor="middle" font-family="Courier Prime" x="137.5" y="91" fill="white">C</text><rect x="150" y="75" width="25" height="25" fill="#F19A3E" /><text text-anchor="middle" font-family="Courier Prime" x="162.5" y="91" fill="white">C</text></svg><svg version="1.1" width="3.5in" height="2in" viewBox="0 0 175 100" x="0.25in" y="2.25in"><text text-anchor="middle" font-family="Dancing Script" font-size="18" x="50%" y="50%" fill="black">Table #10 &#8594; #2</text><rect x="0" y="75" width="25" height="25" fill="#7FB800" /><text text-anchor="middle" font-family="Courier Prime" x="12.5" y="91" fill="white">A</text><rect x="25" y="75" width="25" height="25" fill="#7FB800" /><text text-anchor="middle" font-family="Courier Prime" x="37.5" y="91" fill="white">A</text><rect x="50" y="75" width="25" height="25" fill="#F19A3E" /><text text-anchor="middle" font-family="Courier Prime" x="62.5" y="91" fill="white">C</text><rect x="75" y="75" width="25" height="25" fill="#A63D40" /><text text-anchor="middle" font-family="Courier Prime" x="87.5" y="91" fill="white">T</text><rect x="100" y="75" width="25" height="25" fill="#7FB800" /><text text-anchor="middle" font-family="Courier Prime" x="112.5" y="91" fill="white">A</text><rect x="125" y="75" width="25" height="25" fill="#008FCC" /><text text-anchor="middle" font-family="Courier Prime" x="137.5" y="91" fill="white">G</text><rect x="150" y="75" width="25" height="25" fill="#7FB800" /><text text-anchor="middle" font-family="Courier Prime" x="162.5" y="91" fill="white">A</text></svg><svg version="1.1" width="3.5in" height="2in" viewBox="0 0 175 100" x="3.75in" y="2.25in"><text text-anchor="middle" font-family="Dancing Script" font-size="18" x="50%" y="50%" fill="black">Table #10 &#8594; #5</text><rect x="0" y="75" width="25" height="25" fill="#7FB800" /><text text-anchor="middle" font-family="Courier Prime" x="12.5" y="91" fill="white">A</text><rect x="25" y="75" width="25" height="25" fill="#F19A3E" /><text text-anchor="middle" font-family="Courier Prime" x="37.5" y="91" fill="white">C</text><rect x="50" y="75" width="25" height="25" fill="#F19A3E" /><text text-anchor="middle" font-family="Courier Prime" x="62.5" y="91" fill="white">C</text><rect x="75" y="75" width="25" height="25" fill="#F19A3E" /><text text-anchor="middle" font-family="Courier Prime" x="87.5" y="91" fill="white">C</text><rect x="100" y="75" width="25" height="25" fill="#008FCC" /><text text-anchor="middle" font-family="Courier Prime" x="112.5" y="91" fill="white">G</text><rect x="125" y="75" width="25" height="25" fill="#008FCC" /><text text-anchor="middle" font-family="Courier Prime" x="137.5" y="91" fill="white">G</text><rect x="150" y="75" width="25" height="25" fill="#008FCC" /><text text-anchor="middle" font-family="Courier Prime" x="162.5" y="91" fill="white">G</text></svg><svg version="1.1" width="3.5in" height="2in" viewBox="0 0 175 100" x="7.25in" y="2.25in"><text text-anchor="middle" font-family="Dancing Script" font-size="18" x="50%" y="50%" fill="black">Table #10 &#8594; #1</text><rect x="0" y="75" width="25" height="25" fill="#F19A3E" /><text text-anchor="middle" font-family="Courier Prime" x="12.5" y="91" fill="white">C</text><rect x="25" y="75" width="25" height="25" fill="#A63D40" /><text text-anchor="middle" font-family="Courier Prime" x="37.5" y="91" fill="white">T</text><rect x="50" y="75" width="25" height="25" fill="#F19A3E" /><text text-anchor="middle" font-family="Courier Prime" x="62.5" y="91" fill="white">C</text><rect x="75" y="75" width="25" height="25" fill="#7FB800" /><text text-anchor="middle" font-family="Courier Prime" x="87.5" y="91" fill="white">A</text><rect x="100" y="75" width="25" height="25" fill="#7FB800" /><text text-anchor="middle" font-family="Courier Prime" x="112.5" y="91" fill="white">A</text><rect x="125" y="75" width="25" height="25" fill="#A63D40" /><text text-anchor="middle" font-family="Courier Prime" x="137.5" y="91" fill="white">T</text><rect x="150" y="75" width="25" height="25" fill="#008FCC" /><text text-anchor="middle" font-family="Courier Prime" x="162.5" y="91" fill="white">G</text></svg><svg version="1.1" width="3.5in" height="2in" viewBox="0 0 175 100" x="0.25in" y="4.25in"><text text-anchor="middle" font-family="Dancing Script" font-size="18" x="50%" y="50%" fill="black">Table #10 &#8594; #7</text><rect x="0" y="75" width="25" height="25" fill="#7FB800" /><text text-anchor="middle" font-family="Courier Prime" x="12.5" y="91" fill="white">A</text><rect x="25" y="75" width="25" height="25" fill="#7FB800" /><text text-anchor="middle" font-family="Courier Prime" x="37.5" y="91" fill="white">A</text><rect x="50" y="75" width="25" height="25" fill="#F19A3E" /><text text-anchor="middle" font-family="Courier Prime" x="62.5" y="91" fill="white">C</text><rect x="75" y="75" width="25" height="25" fill="#7FB800" /><text text-anchor="middle" font-family="Courier Prime" x="87.5" y="91" fill="white">A</text><rect x="100" y="75" width="25" height="25" fill="#008FCC" /><text text-anchor="middle" font-family="Courier Prime" x="112.5" y="91" fill="white">G</text><rect x="125" y="75" width="25" height="25" fill="#A63D40" /><text text-anchor="middle" font-family="Courier Prime" x="137.5" y="91" fill="white">T</text><rect x="150" y="75" width="25" height="25" fill="#F19A3E" /><text text-anchor="middle" font-family="Courier Prime" x="162.5" y="91" fill="white">C</text></svg><svg version="1.1" width="3.5in" height="2in" viewBox="0 0 175 100" x="3.75in" y="4.25in"><text text-anchor="middle" font-family="Dancing Script" font-size="18" x="50%" y="50%" fill="black">Table #10 &#8594; #2</text><rect x="0" y="75" width="25" height="25" fill="#A63D40" /><text text-anchor="middle" font-family="Courier Prime" x="12.5" y="91" fill="white">T</text><rect x="25" y="75" width="25" height="25" fill="#7FB800" /><text text-anchor="middle" font-family="Courier Prime" x="37.5" y="91" fill="white">A</text><rect x="50" y="75" width="25" height="25" fill="#008FCC" /><text text-anchor="middle" font-family="Courier Prime" x="62.5" y="91" fill="white">G</text><rect x="75" y="75" width="25" height="25" fill="#F19A3E" /><text text-anchor="middle" font-family="Courier Prime" x="87.5" y="91" fill="white">C</text><rect x="100" y="75" width="25" height="25" fill="#F19A3E" /><text text-anchor="middle" font-family="Courier Prime" x="112.5" y="91" fill="white">C</text><rect x="125" y="75" width="25" height="25" fill="#7FB800" /><text text-anchor="middle" font-family="Courier Prime" x="137.5" y="91" fill="white">A</text><rect x="150" y="75" width="25" height="25" fill="#008FCC" /><text text-anchor="middle" font-family="Courier Prime" x="162.5" y="91" fill="white">G</text></svg><svg version="1.1" width="3.5in" height="2in" viewBox="0 0 175 100" x="7.25in" y="4.25in"><text text-anchor="middle" font-family="Dancing Script" font-size="18" x="50%" y="50%" fill="black">Table #10 &#8594; #9</text><rect x="0" y="75" width="25" height="25" fill="#7FB800" /><text text-anchor="middle" font-family="Courier Prime" x="12.5" y="91" fill="white">A</text><rect x="25" y="75" width="25" height="25" fill="#A63D40" /><text text-anchor="middle" font-family="Courier Prime" x="37.5" y="91" fill="white">T</text><rect x="50" y="75" width="25" height="25" fill="#F19A3E" /><text text-anchor="middle" font-family="Courier Prime" x="62.5" y="91" fill="white">C</text><rect x="75" y="75" width="25" height="25" fill="#7FB800" /><text text-anchor="middle" font-family="Courier Prime" x="87.5" y="91" fill="white">A</text><rect x="100" y="75" width="25" height="25" fill="#7FB800" /><text text-anchor="middle" font-family="Courier Prime" x="112.5" y="91" fill="white">A</text><rect x="125" y="75" width="25" height="25" fill="#008FCC" /><text text-anchor="middle" font-family="Courier Prime" x="137.5" y="91" fill="white">G</text><rect x="150" y="75" width="25" height="25" fill="#7FB800" /><text text-anchor="middle" font-family="Courier Prime" x="162.5" y="91" fill="white">A</text></svg><svg version="1.1" width="3.5in" height="2in" viewBox="0 0 175 100" x="0.25in" y="6.25in"><text text-anchor="middle" font-family="Dancing Script" font-size="18" x="50%" y="50%" fill="black">Table #10 &#8594; #4</text><rect x="0" y="75" width="25" height="25" fill="#008FCC" /><text text-anchor="middle" font-family="Courier Prime" x="12.5" y="91" fill="white">G</text><rect x="25" y="75" width="25" height="25" fill="#008FCC" /><text text-anchor="middle" font-family="Courier Prime" x="37.5" y="91" fill="white">G</text><rect x="50" y="75" width="25" height="25" fill="#7FB800" /><text text-anchor="middle" font-family="Courier Prime" x="62.5" y="91" fill="white">A</text><rect x="75" y="75" width="25" height="25" fill="#7FB800" /><text text-anchor="middle" font-family="Courier Prime" x="87.5" y="91" fill="white">A</text><rect x="100" y="75" width="25" height="25" fill="#7FB800" /><text text-anchor="middle" font-family="Courier Prime" x="112.5" y="91" fill="white">A</text><rect x="125" y="75" width="25" height="25" fill="#A63D40" /><text text-anchor="middle" font-family="Courier Prime" x="137.5" y="91" fill="white">T</text><rect x="150" y="75" width="25" height="25" fill="#A63D40" /><text text-anchor="middle" font-family="Courier Prime" x="162.5" y="91" fill="white">T</text></svg><svg version="1.1" width="3.5in" height="2in" viewBox="0 0 175 100" x="3.75in" y="6.25in"><text text-anchor="middle" font-family="Dancing Script" font-size="18" x="50%" y="50%" fill="black">Table #10 &#8594; #7</text><rect x="0" y="75" width="25" height="25" fill="#A63D40" /><text text-anchor="middle" font-family="Courier Prime" x="12.5" y="91" fill="white">T</text><rect x="25" y="75" width="25" height="25" fill="#7FB800" /><text text-anchor="middle" font-family="Courier Prime" x="37.5" y="91" fill="white">A</text><rect x="50" y="75" width="25" height="25" fill="#F19A3E" /><text text-anchor="middle" font-family="Courier Prime" x="62.5" y="91" fill="white">C</text><rect x="75" y="75" width="25" height="25" fill="#F19A3E" /><text text-anchor="middle" font-family="Courier Prime" x="87.5" y="91" fill="white">C</text><rect x="100" y="75" width="25" height="25" fill="#F19A3E" /><text text-anchor="middle" font-family="Courier Prime" x="112.5" y="91" fill="white">C</text><rect x="125" y="75" width="25" height="25" fill="#F19A3E" /><text text-anchor="middle" font-family="Courier Prime" x="137.5" y="91" fill="white">C</text><rect x="150" y="75" width="25" height="25" fill="#008FCC" /><text text-anchor="middle" font-family="Courier Prime" x="162.5" y="91" fill="white">G</text></svg><svg version="1.1" width="3.5in" height="2in" viewBox="0 0 175 100" x="7.25in" y="6.25in"><text text-anchor="middle" font-family="Dancing Script" font-size="18" x="50%" y="50%" fill="black">Table #10 &#8594; #6</text><rect x="0" y="75" width="25" height="25" fill="#008FCC" /><text text-anchor="middle" font-family="Courier Prime" x="12.5" y="91" fill="white">G</text><rect x="25" y="75" width="25" height="25" fill="#A63D40" /><text text-anchor="middle" font-family="Courier Prime" x="37.5" y="91" fill="white">T</text><rect x="50" y="75" width="25" height="25" fill="#A63D40" /><text text-anchor="middle" font-family="Courier Prime" x="62.5" y="91" fill="white">T</text><rect x="75" y="75" width="25" height="25" fill="#7FB800" /><text text-anchor="middle" font-family="Courier Prime" x="87.5" y="91" fill="white">A</text><rect x="100" y="75" width="25" height="25" fill="#A63D40" /><text text-anchor="middle" font-family="Courier Prime" x="112.5" y="91" fill="white">T</text><rect x="125" y="75" width="25" height="25" fill="#008FCC" /><text text-anchor="middle" font-family="Courier Prime" x="137.5" y="91" fill="white">G</text><rect x="150" y="75" width="25" height="25" fill="#008FCC" /><text text-anchor="middle" font-family="Courier Prime" x="162.5" y="91" fill="white">G</text></svg><line x1="3.75in" y1="0.25in" x2="3.75in" y2="8.25in" stroke="black" /><line x1="7.25in" y1="0.25in" x2="7.25in" y2="8.25in" stroke="black" /></svg>